<svg xmlns="http://www.w3.org/2000/svg" viewBox="0 0 64 64">
  <defs>
    <linearGradient id="g" x1="0" x2="1" y1="0" y2="1">
      <stop offset="0%" stop-color="#0F766E"/>
      <stop offset="100%" stop-color="#0B5E57"/>
    </linearGradient>
  </defs>
  <rect width="64" height="64" rx="14" fill="url(#g)"/>
  <g fill="#D4A373">
    <path d="M20 34c0-7.732 6.268-14 14-14 2.89 0 5.57.89 7.79 2.41a2 2 0 1 0 2.22-3.29A17.97 17.97 0 0 0 34 18c-9.941 0-18 8.059-18 18 0 3.11.8 6.03 2.21 8.57a2 2 0 1 0 3.46-1.96A13.95 13.95 0 0 1 20 34z"/>
    <path d="M44 30c0 7.732-6.268 14-14 14-2.89 0-5.57-.89-7.79-2.41a2 2 0 1 0-2.22 3.29A17.97 17.97 0 0 0 30 50c9.941 0 18-8.059 18-18 0-3.11-.8-6.03-2.21-8.57a2 2 0 1 0-3.46 1.96A13.95 13.95 0 0 1 44 30z"/>
  </g>
</svg>

